/* XPM */
static char * vim16x16[] = {
"16 16 65 1",
" 	c None",
".	c #198ACC",
"+	c #1A406B",
"@	c #197FBE",
"#	c #208FCC",
"$	c #198CCF",
"%	c #1A446F",
"&	c #1B2C50",
"*	c #193B66",
"=	c #97BA9C",
"-	c #AEBD8D",
";	c #5DA2B1",
">	c #1A8CCE",
",	c #196BA3",
"'	c #1A2B50",
")	c #95B496",
"!	c #CDC880",
"~	c #CCC880",
"{	c #B0BE8C",
"]	c #8DB39B",
"^	c #5BA1B1",
"/	c #2991C7",
"(	c #1A2C50",
"_	c #192A4F",
":	c #A6B589",
"<	c #9AB695",
"[	c #748383",
"}	c #4B87A5",
"|	c #19669D",
"1	c #192E55",
"2	c #CECD85",
"3	c #C1C687",
"4	c #828176",
"5	c #E47B28",
"6	c #E27B29",
"7	c #1974AF",
"8	c #172B52",
"9	c #819C89",
"0	c #CFC980",
"a	c #79A29B",
"b	c #198BCE",
"c	c #1A5687",
"d	c #19345B",
"e	c #467083",
"f	c #96866C",
"g	c #E37B29",
"h	c #188ACD",
"i	c #3696C2",
"j	c #94B598",
"k	c #A5BC92",
"l	c #A07D5D",
"m	c #A2805D",
"n	c #1F8ECC",
"o	c #4F9DB7",
"p	c #81AEA1",
"q	c #B8C088",
"r	c #A7BC90",
"s	c #9A7D61",
"t	c #3789B6",
"u	c #3294C4",
"v	c #8AB19C",
"w	c #67828C",
"x	c #D67C33",
"y	c #618593",
"z	c #238BC6",
"                ",
"                ",
"                ",
"  .+@#          ",
" $%&*=-;>$      ",
" ,&&')!!~{]^/   ",
" (&&_:!!!!!!<[} ",
"|&&&12!!!!!3456$",
"7&(890!!!!!a555b",
" cde!!!!!!!f55g$",
"  hij!!!!!kl55m ",
"     nopq!rs55t ",
"        $uvwxy  ",
"            z   ",
"                ",
"                "};
