/* XPM */
static char * vim48x48[] = {
"48 48 694 2",
"  	c None",
". 	c #62797B",
"+ 	c #809EA1",
"@ 	c #7F9DA0",
"# 	c #809FA2",
"$ 	c #718C8F",
"% 	c #819FA2",
"& 	c #82A1A4",
"* 	c #0C0F0F",
"= 	c #191F1F",
"- 	c #21292A",
"; 	c #06070C",
"> 	c #16192C",
", 	c #1A1E34",
"' 	c #15192B",
") 	c #07080D",
"! 	c #83A2A6",
"~ 	c #283131",
"{ 	c #101220",
"] 	c #292F55",
"^ 	c #2E355F",
"/ 	c #252B4D",
"( 	c #222645",
"_ 	c #272D51",
": 	c #0C0D17",
"< 	c #62797C",
"[ 	c #7C999C",
"} 	c #789497",
"| 	c #789598",
"1 	c #7B989B",
"2 	c #7C9A9D",
"3 	c #7E9C9F",
"4 	c #7F9EA1",
"5 	c #7E9B9E",
"6 	c #799699",
"7 	c #677F81",
"8 	c #1F2627",
"9 	c #121424",
"0 	c #2B3159",
"a 	c #222745",
"b 	c #121423",
"c 	c #15182B",
"d 	c #22283C",
"e 	c #657D7E",
"f 	c #647D7F",
"g 	c #55686B",
"h 	c #506164",
"i 	c #536468",
"j 	c #526367",
"k 	c #576A6D",
"l 	c #5B7073",
"m 	c #61777A",
"n 	c #657C7F",
"o 	c #677F82",
"p 	c #688082",
"q 	c #698083",
"r 	c #647A7D",
"s 	c #5F7376",
"t 	c #586B6E",
"u 	c #546669",
"v 	c #6C8287",
"w 	c #A1C1C8",
"x 	c #6F858A",
"y 	c #48575A",
"z 	c #131526",
"A 	c #1A1E36",
"B 	c #202542",
"C 	c #0C0E17",
"D 	c #293055",
"E 	c #1E2434",
"F 	c #688181",
"G 	c #55696B",
"H 	c #5C6F72",
"I 	c #89A5AC",
"J 	c #A0C0C8",
"K 	c #A1C2C9",
"L 	c #A3C4CC",
"M 	c #A2C3CA",
"N 	c #99B8BE",
"O 	c #8DAAB0",
"P 	c #71888B",
"Q 	c #546668",
"R 	c #435050",
"S 	c #364242",
"T 	c #30393C",
"U 	c #2D353A",
"V 	c #323B41",
"W 	c #38434A",
"X 	c #46545B",
"Y 	c #4F5F66",
"Z 	c #4D5D64",
"` 	c #4A5961",
" .	c #4E5D65",
"..	c #3E4B51",
"+.	c #1C2124",
"@.	c #000000",
"#.	c #0D101B",
"$.	c #292F54",
"%.	c #171A2E",
"&.	c #0E101E",
"*.	c #242A4C",
"=.	c #283038",
"-.	c #769294",
";.	c #82A0A4",
">.	c #809EA2",
",.	c #728E90",
"'.	c #414E51",
").	c #A0C1C8",
"!.	c #9EBFC6",
"~.	c #87A3A8",
"{.	c #57696A",
"].	c #343E44",
"^.	c #1F2432",
"/.	c #23293F",
"(.	c #282F4D",
"_.	c #2D3358",
":.	c #2F365D",
"<.	c #2E355C",
"[.	c #2D345B",
"}.	c #2C335B",
"|.	c #2C335A",
"1.	c #2D335B",
"2.	c #2A3157",
"3.	c #181C32",
"4.	c #030303",
"5.	c #090A10",
"6.	c #2D335C",
"7.	c #1B1F37",
"8.	c #262C4F",
"9.	c #1C213B",
"0.	c #07080E",
"a.	c #313966",
"b.	c #2B315A",
"c.	c #171B2D",
"d.	c #47585B",
"e.	c #759093",
"f.	c #495B5C",
"g.	c #789196",
"h.	c #91AEB5",
"i.	c #70868D",
"j.	c #435056",
"k.	c #1D222F",
"l.	c #14172F",
"m.	c #272C52",
"n.	c #2E3560",
"o.	c #2F3662",
"p.	c #2F3661",
"q.	c #2F3660",
"r.	c #2F3762",
"s.	c #0E101D",
"t.	c #1F2441",
"u.	c #2A3156",
"v.	c #0D0F19",
"w.	c #050608",
"x.	c #222746",
"y.	c #303764",
"z.	c #24284E",
"A.	c #191D35",
"B.	c #272F3F",
"C.	c #1F2634",
"D.	c #242B3D",
"E.	c #191C35",
"F.	c #1B1F3F",
"G.	c #282E56",
"H.	c #2F3663",
"I.	c #303762",
"J.	c #262D58",
"K.	c #1E244B",
"L.	c #1B2046",
"M.	c #21264F",
"N.	c #2B325D",
"O.	c #2E3660",
"P.	c #2D3460",
"Q.	c #222951",
"R.	c #1D2248",
"S.	c #1D2249",
"T.	c #2A3159",
"U.	c #2E355E",
"V.	c #15192D",
"W.	c #242A4B",
"X.	c #111422",
"Y.	c #1F2542",
"Z.	c #2E3561",
"`.	c #252A4C",
" +	c #272D50",
".+	c #29305C",
"++	c #1C2037",
"@+	c #62674F",
"#+	c #8F9465",
"$+	c #A2A76E",
"%+	c #A1A66D",
"&+	c #7C805B",
"*+	c #323539",
"=+	c #212750",
"-+	c #232953",
";+	c #272A33",
">+	c #757A58",
",+	c #999E6A",
"'+	c #A3A86F",
")+	c #8F9464",
"!+	c #1B1D22",
"~+	c #191E3A",
"{+	c #2B3259",
"]+	c #24294A",
"^+	c #212644",
"/+	c #121422",
"(+	c #2F3761",
"_+	c #191D33",
":+	c #2B3158",
"<+	c #29305A",
"[+	c #323639",
"}+	c #C9CF82",
"|+	c #EAF195",
"1+	c #F0F799",
"2+	c #F2F99B",
"3+	c #EDF497",
"4+	c #E0E78F",
"5+	c #5E6143",
"6+	c #2C3259",
"7+	c #20264F",
"8+	c #53563F",
"9+	c #E3EA91",
"0+	c #ECF397",
"a+	c #F1F89A",
"b+	c #F3FA9B",
"c+	c #AEB36F",
"d+	c #12130C",
"e+	c #141729",
"f+	c #303763",
"g+	c #1F233F",
"h+	c #111423",
"i+	c #0E101C",
"j+	c #10121F",
"k+	c #282E52",
"l+	c #1A1D34",
"m+	c #2C325A",
"n+	c #2E3349",
"o+	c #BCC177",
"p+	c #EEF598",
"q+	c #E8EE94",
"r+	c #F4FA9A",
"s+	c #323532",
"t+	c #2A315C",
"u+	c #444841",
"v+	c #ECF396",
"w+	c #EAF196",
"x+	c #E3E991",
"y+	c #E4EB92",
"z+	c #FAFFA0",
"A+	c #61633E",
"B+	c #212642",
"C+	c #202630",
"D+	c #252A4D",
"E+	c #1D213B",
"F+	c #2C335C",
"G+	c #2B325B",
"H+	c #595D4B",
"I+	c #EFF697",
"J+	c #B7BD75",
"K+	c #41432A",
"L+	c #42442A",
"M+	c #F9FF9F",
"N+	c #9DA261",
"O+	c #1F2449",
"P+	c #22284C",
"Q+	c #A1A66E",
"R+	c #F8FF9E",
"S+	c #8E925B",
"T+	c #202115",
"U+	c #323321",
"V+	c #FFFFA8",
"W+	c #999D61",
"X+	c #070704",
"Y+	c #0B0C15",
"Z+	c #313865",
"`+	c #08090F",
" @	c #596D6E",
".@	c #3E4D54",
"+@	c #1A1D3A",
"@@	c #303865",
"#@	c #1F233E",
"$@	c #2D345D",
"%@	c #2D335A",
"&@	c #747850",
"*@	c #FAFF9F",
"=@	c #999E62",
"-@	c #FDFFA2",
";@	c #EDF496",
">@	c #0E102A",
",@	c #2E344F",
"'@	c #B6BB75",
")@	c #787C4D",
"!@	c #070805",
"~@	c #FFFFAA",
"{@	c #A0A566",
"]@	c #080805",
"^@	c #040508",
"/@	c #080A10",
"(@	c #7E9C9E",
"_@	c #516468",
":@	c #181A32",
"<@	c #2F3560",
"[@	c #1E223D",
"}@	c #6F734E",
"|@	c #C2C87D",
"1@	c #656741",
"2@	c #5E613C",
"3@	c #F4FB9C",
"4@	c #F6FD9C",
"5@	c #0B0E26",
"6@	c #2B314E",
"7@	c #B2B873",
"8@	c #C8CE80",
"9@	c #A4A969",
"0@	c #ABAF6E",
"a@	c #FEFFA3",
"b@	c #858955",
"c@	c #050503",
"d@	c #586D6F",
"e@	c #21283D",
"f@	c #1B2039",
"g@	c #4E5246",
"h@	c #E8EF93",
"i@	c #F7FE9E",
"j@	c #F6FD9D",
"k@	c #BEC377",
"l@	c #161A39",
"m@	c #1F254C",
"n@	c #515333",
"o@	c #292F53",
"p@	c #83A2A5",
"q@	c #607777",
"r@	c #272E3F",
"s@	c #292F57",
"t@	c #2A2F4A",
"u@	c #939760",
"v@	c #F5FC9C",
"w@	c #F0F797",
"x@	c #4D5038",
"y@	c #2B325E",
"z@	c #33373D",
"A@	c #C8CE7F",
"B@	c #BCC278",
"C@	c #16170E",
"D@	c #212643",
"E@	c #303864",
"F@	c #1E233E",
"G@	c #657D7F",
"H@	c #84A2A5",
"I@	c #6C8586",
"J@	c #252C39",
"K@	c #282D56",
"L@	c #2B325C",
"M@	c #2B3046",
"N@	c #6B6E48",
"O@	c #C6CC7C",
"P@	c #FAFF9D",
"Q@	c #FFFFA3",
"R@	c #FFFFA2",
"S@	c #BDC275",
"T@	c #5B5F45",
"U@	c #252A4B",
"V@	c #252B56",
"W@	c #3A3E40",
"X@	c #91955A",
"Y@	c #E1E78D",
"Z@	c #FFFFA4",
"`@	c #CFD583",
" #	c #2D2E1A",
".#	c #728D90",
"+#	c #232A37",
"@#	c #272D54",
"##	c #2D345E",
"$#	c #292E42",
"%#	c #26292F",
"&#	c #2D302F",
"*#	c #2F3230",
"=#	c #272A2F",
"-#	c #292E45",
";#	c #2D3354",
">#	c #262A37",
",#	c #292D2E",
"'#	c #292B2C",
")#	c #1B1D24",
"!#	c #171B30",
"~#	c #769193",
"{#	c #2E383C",
"]#	c #242A45",
"^#	c #2B325A",
"/#	c #181B31",
"(#	c #050508",
"_#	c #84A3A5",
":#	c #607676",
"<#	c #3F4E51",
"[#	c #36414B",
"}#	c #343F4B",
"|#	c #323C4B",
"1#	c #313B4C",
"2#	c #30394D",
"3#	c #2F384D",
"4#	c #2F374E",
"5#	c #2E374E",
"6#	c #2E364E",
"7#	c #2C354F",
"8#	c #2D354E",
"9#	c #2C354E",
"0#	c #2D354C",
"a#	c #1A1F35",
"b#	c #1A1D35",
"c#	c #16182B",
"d#	c #0E111D",
"e#	c #81A0A3",
"f#	c #7F9D9F",
"g#	c #799598",
"h#	c #759193",
"i#	c #728D8F",
"j#	c #718B8C",
"k#	c #6E8889",
"l#	c #6D8687",
"m#	c #6A8383",
"n#	c #688081",
"o#	c #678080",
"p#	c #677F80",
"q#	c #6B8485",
"r#	c #688182",
"s#	c #769192",
"t#	c #708989",
"u#	c #718A89",
"v#	c #7A9595",
"w#	c #7A989B",
"x#	c #7D9A9E",
"y#	c #7F9DA1",
"z#	c #748F92",
"A#	c #6C868A",
"B#	c #647364",
"C#	c #777C54",
"D#	c #454528",
"E#	c #96995B",
"F#	c #9FA261",
"G#	c #8B8E55",
"H#	c #7A8054",
"I#	c #474F40",
"J#	c #697662",
"K#	c #6C7D6E",
"L#	c #6D8076",
"M#	c #6B8079",
"N#	c #5F7474",
"O#	c #647B7A",
"P#	c #647A79",
"Q#	c #5F7677",
"R#	c #647C7F",
"S#	c #647C7E",
"T#	c #5A6F71",
"U#	c #323D3E",
"V#	c #738F93",
"W#	c #323932",
"X#	c #BDC276",
"Y#	c #FFFFAB",
"Z#	c #8E935B",
"`#	c #FFFFA5",
" $	c #6C6E44",
".$	c #DDE38B",
"+$	c #CFD582",
"@$	c #C2C679",
"#$	c #C0C578",
"$$	c #4A4C2F",
"%$	c #BCC27A",
"&$	c #B3B975",
"*$	c #B8BF78",
"=$	c #393C28",
"-$	c #495A5B",
";$	c #A3A86A",
">$	c #797D4E",
",$	c #5B5D3A",
"'$	c #343522",
")$	c #A1A567",
"!$	c #DAE08B",
"~$	c #FFFFA6",
"{$	c #FEFFA2",
"]$	c #F5FC9D",
"^$	c #FCFFA1",
"/$	c #62653F",
"($	c #4F5132",
"_$	c #81A0A4",
":$	c #566357",
"<$	c #E6EC93",
"[$	c #848855",
"}$	c #7A7F4F",
"|$	c #5D5F3B",
"1$	c #62643F",
"2$	c #262819",
"3$	c #848854",
"4$	c #ABB06E",
"5$	c #B4BA74",
"6$	c #47492E",
"7$	c #B8BE76",
"8$	c #A6AB6A",
"9$	c #8F935C",
"0$	c #28291A",
"a$	c #81A0A5",
"b$	c #515F55",
"c$	c #E8EF95",
"d$	c #F8FF9F",
"e$	c #E9F095",
"f$	c #666942",
"g$	c #E5EB92",
"h$	c #C8CD80",
"i$	c #B8BD76",
"j$	c #B9BF77",
"k$	c #494B2F",
"l$	c #BCC178",
"m$	c #BAC077",
"n$	c #83A1A5",
"o$	c #445556",
"p$	c #7E8252",
"q$	c #A8AE6C",
"r$	c #8B905A",
"s$	c #E8EF94",
"t$	c #60633E",
"u$	c #4D4F31",
"v$	c #5A7279",
"w$	c #8A905C",
"x$	c #B1B671",
"y$	c #60623E",
"z$	c #313220",
"A$	c #A8AD6B",
"B$	c #626640",
"C$	c #61643F",
"D$	c #4E4F32",
"E$	c #85A5A9",
"F$	c #303A37",
"G$	c #838855",
"H$	c #999D62",
"I$	c #6A6D44",
"J$	c #595C3A",
"K$	c #707348",
"L$	c #363823",
"M$	c #ABB06D",
"N$	c #BABF77",
"O$	c #CFD585",
"P$	c #515335",
"Q$	c #D3D987",
"R$	c #C1C77C",
"S$	c #BEC47A",
"T$	c #383824",
"U$	c #222829",
"V$	c #769397",
"W$	c #4E5646",
"X$	c #CCD180",
"Y$	c #575B39",
"Z$	c #C0C57B",
"`$	c #A9AE6C",
" %	c #9EA265",
".%	c #9FA366",
"+%	c #A3A768",
"@%	c #A4A869",
"#%	c #B0B571",
"$%	c #383A25",
"%%	c #1E1E22",
"&%	c #282C30",
"*%	c #698284",
"=%	c #749094",
"-%	c #607167",
";%	c #3E422F",
">%	c #A2A564",
",%	c #DADF88",
"'%	c #FBFF9F",
")%	c #FFFFA9",
"!%	c #656941",
"~%	c #73764A",
"{%	c #414430",
"]%	c #475A5D",
"^%	c #080809",
"/%	c #292A2F",
"(%	c #212226",
"_%	c #435254",
":%	c #7D9B9E",
"<%	c #677E7C",
"[%	c #4F5E59",
"}%	c #424B3F",
"|%	c #5A5E3F",
"1%	c #272819",
"2%	c #757747",
"3%	c #898C55",
"4%	c #93965C",
"5%	c #878A54",
"6%	c #46472A",
"7%	c #7D7F4C",
"8%	c #5E613E",
"9%	c #3F4639",
"0%	c #5A6E6F",
"a%	c #5B7173",
"b%	c #0D0D0E",
"c%	c #242429",
"d%	c #1A1A1D",
"e%	c #27282D",
"f%	c #2E2F35",
"g%	c #1D1B20",
"h%	c #2B3335",
"i%	c #6D8789",
"j%	c #82A0A3",
"k%	c #82A1A5",
"l%	c #81A1A5",
"m%	c #83A3A7",
"n%	c #7A989D",
"o%	c #6D888D",
"p%	c #688287",
"q%	c #698287",
"r%	c #6C868B",
"s%	c #77949A",
"t%	c #4A5B5D",
"u%	c #111013",
"v%	c #16171A",
"w%	c #28292F",
"x%	c #2E3036",
"y%	c #1C1C20",
"z%	c #232429",
"A%	c #2D2E34",
"B%	c #1D1C21",
"C%	c #0E0D0F",
"D%	c #333C3F",
"E%	c #546769",
"F%	c #637B7D",
"G%	c #84A3A6",
"H%	c #3B484A",
"I%	c #26262B",
"J%	c #151518",
"K%	c #111214",
"L%	c #2C2D33",
"M%	c #24252A",
"N%	c #19191D",
"O%	c #121316",
"P%	c #28282E",
"Q%	c #212126",
"R%	c #282B2E",
"S%	c #2F3638",
"T%	c #384447",
"U%	c #4B5D5F",
"V%	c #61797A",
"W%	c #6E888B",
"X%	c #4B5D5E",
"Y%	c #3C494B",
"Z%	c #272E30",
"`%	c #26282C",
" &	c #1B1B1E",
".&	c #1C1D21",
"+&	c #101113",
"@&	c #2A2B30",
"#&	c #2E2F36",
"$&	c #131315",
"%&	c #2D2E35",
"&&	c #2A2B31",
"*&	c #1F1F24",
"=&	c #202125",
"-&	c #25272B",
";&	c #1F2226",
">&	c #1C1F21",
",&	c #1B1E20",
"'&	c #171A1C",
")&	c #191B1E",
"!&	c #212326",
"~&	c #24262B",
"{&	c #27292D",
"]&	c #2B2C32",
"^&	c #2B2C31",
"/&	c #18191D",
"(&	c #25262B",
"_&	c #1A1B1E",
":&	c #26262C",
"<&	c #2C2E34",
"[&	c #1F2024",
"}&	c #28292E",
"|&	c #131316",
"1&	c #121215",
"2&	c #1F1F23",
"3&	c #222327",
"4&	c #2F3036",
"5&	c #131417",
"6&	c #25262A",
"7&	c #1A1A1E",
"8&	c #0C0C0E",
"9&	c #2C2C32",
"0&	c #2B2B31",
"a&	c #1C1C21",
"b&	c #292A30",
"c&	c #161719",
"d&	c #1E1F23",
"e&	c #1B1C20",
"f&	c #222328",
"g&	c #101012",
"h&	c #1B1B1F",
"i&	c #17181B",
"j&	c #1D1E22",
"k&	c #17171A",
"                                                                                                ",
"                                                                                                ",
"                    . + @ @ @ @ @ @ @ @ @ @ @ @ @ @ @ @ @ @ @ @ @ @ # $                         ",
"                    . + @ @ @ @ @ @ @ @ @ @ @ @ @ @ @ @ @ @ @ @ @ @ @ %                         ",
"                    . + @ @ @ @ @ @ @ @ @ @ @ @ @ @ @ @ @ @ @ @ @ @ @ & *                       ",
"                    . + @ @ @ @ @ @ @ @ @ @ @ @ @ @ @ @ @ @ @ @ @ @ @ & =                       ",
"                    . + @ @ @ @ @ @ @ @ @ @ @ @ @ @ @ @ @ @ @ @ @ @ @ & -                       ",
"    ; > , ' )       . + @ @ @ @ @ @ @ @ @ @ @ @ @ @ @ @ @ @ @ @ @ @ @ ! ~                       ",
"  { ] ^ / ( _ :     < + @ @ @ @ @ @ [ } } } | 1 2 3 @ 4 4 4 @ 5 [ 6 6 7 8                       ",
"      9 0 a b { c d e + @ @ @ @ + f g h i j h k l m n o p q 7 r s t u v w x y                   ",
"        z A B C D E F % @ @ @ & G H I J K L M N O P Q R S T U V W X Y Z `  ...+.@.              ",
"        #.$.%.&.%.*.=.-.;.@ >.,.'.).!.).K ~.{.].^./.(._.:.<.[.[.}.|.|.|.|.|.1.[.2._ 3.4.        ",
"      5.6.7.8.9.0.a.b.c.d.e.[ f.g.h.i.j.k.l.m.n.o.p.q.n.^ ^ ^ ^ ^ ^ ^ ^ ^ ^ ^ ^ ^ n.r.0 s.      ",
"      t.^ D u.v.w.x.n.y.z.A.B.C.D.E.F.G.H.I.q.o.J.K.L.L.M.N.q.^ ^ ^ ^ O.P.Q.R.L.S.T.p.n.U.V.    ",
"      $.q.W.X.  ) Y.7.n.n.p.Z.o.Z.r.`. +n.q..+++@+#+$+%+&+*+=+n.^ ^ I.-+;+>+,+'+)+!+~+p.^ {+z   ",
"      ]+/         ^+/ /+(+^ ^ ^ ^ o._+:+^ <+[+}+|+1+2+2+3+4+5+6+^ q.7+8+9+0+a+b+a+c+d+e+f+p.g+  ",
"      h+i+        j+k+I.^ ^ ^ ^ ^ ^ l+m+^ n+o+b+a+p+q+q+a+2+r+s+Z.t+u+v+a+a+w+x+y+z+A+@.B+I.u.  ",
"                    C+D+r.^ ^ ^ ^ {+E+F+G+H+I+a+2+J+K+L+M+a+z+N+O+P+Q+a+a+R+S+T+U+V+W+X+Y+Z+p.`+",
"                     @.@+@@@^ ^ ^ D #@$@%@&@*@a+b+=@@.@.-@a+2+;@>@,@'@2+a+M+)@@.!@~@{@]@^@p.f+/@",
"                    < (@_@:@<@^ ^ :+[@6.|.}@*@a+2+|@1@2@3@a+a+4@5@6@7@2+a+3@8@9@0@a@b@c@^@f+<@`+",
"                    . 4 + d@e@}.^ p.f@m+G+g@h@a+a+b+i@i@a+a+j@k@l@m@)+1+a+a+b+3@3@3@n@@.C a.o@  ",
"                    n 4 @ p@q@r@s@p.{+U.^ t@u@v@v@a+a+a+a+i@w@x@t+y@z@A@*@b+a+a+3@B@C@@.D@E@F@  ",
"                    G@4 @ @ H@I@J@K@p.^ ^ L@M@N@O@P@Q@R@P@S@T@U@q.q.V@W@X@Y@R@Z@`@ #@.l+p.}.e+  ",
"                    G@4 @ @ @ + .#+#@#p.^ ^ ##|.$#%#&#*#=#-#6+^ ^ ^ ^ F+;#>#,#'#)#!#k+q.$@>     ",
"                    G@4 @ @ @ @ + ~#{#]#[.0 ^#}.$@^ n.n.n.^ ^ ^ ^ ^ ^ ####^ ^ ##$@$@_ /#(#      ",
"                    G@4 @ @ @ @ @ # _#:#<#[#}#|#1#2#3#4#5#6#7#8#8#8#9#6#0#a#b#c#d#              ",
"                    G@4 @ @ @ @ @ @ @ e#p@p@f#g#h#i#j#k#l#m#n#o#o#o#p#q#r#                      ",
"                    G@4 @ @ @ @ @ @ @ + + @ @ @ @ @ @ @ @ 4 4 4 4 4 4 4 6                       ",
"                    G@4 @ @ @ + 2 } s#t#u#v#} g#w#x#@ y#+ 4 4 4 + 4 + 3 z#                      ",
"                    G@4 @ @ ;.A#B#C#D#E#F#G#H#I#J#K#L#M#N#O#P#P#Q#R#S#T#U#                      ",
"                    G@4 @ + V#W#X#Y#Z#p+M+R+`# $.$+$@$#$$$%$&$*$=$                              ",
"                    G@4 @ & -$;$>$,$'$)$!$M+~$1@{$j@]$^$/$Z@j@{$($                              ",
"                    G@4 @ _$:$<$i@Q@[$)$}$|$1$2$3$=@4$5$6$7$8$9$0$                              ",
"                    G@4 @ a$b$c$j@d$[$e$z+^$V+f$g$h$i$j$k$l$m$!$6$                              ",
"                    G@4 @ n$o$p$q$d$r$s$2+a+^$t$z+3@v@^$/$Z@v@z+u$                              ",
"                    G@4 @ e#v$w$x$y$z$A$s$z+`#B$^$b+b+*@C$-@b+z+D$                              ",
"                    G@4 @ @ E$F$9+`#G$H$I$J$K$L$M$N$h$O$P$Q$R$S$T$                              ",
"                  U$7 4 @ @ + V$W$X$3$p+-@{$*@Y$Z$`$ %.%K++%@%#%$%                              ",
"                %%&%*%+ @ @ @ # =%-%;%>%,%'%)%!%V+{$Q@M+~%~@Z@~${%]%                            ",
"              ^%/%(%_%# y#@ @ @ @ :%| <%[%}%|%1%2%3%4%5%6%7%8%9%0%a%                            ",
"          b%c%d%e%f%g%h%i%1 @ + @ @ @ + j%k%l%m%n%o%p%q%r%s%_$p@+ t%u%^%                        ",
"        v%w%x%y%z%A%x%B%C%D%E%F%-.p@p@e## + @ @ + % j%& p@& n$G%6 H%I%J%K%                      ",
"      (%L%L%A%M%N%f%f%O%A%P%Q%R%S%T%U%V%.#3 e#e#e#+ } W%S#a%X%Y%Z%`%A% &M%.&                    ",
"        L%L%L%A%+&@&#&$&%&L%L%L%&&*&=&-&;&>&,&,&,&'&)&!&~&{&]&^&/&(&f%_&:&<&[&                  ",
"        L%L%L%L%}&|&]&1&%&L%L%L%]&%%e%A%A%A%A%A%A%}&2&L%A%L%L%L%3&[&4&5&^&L%A%                  ",
"          L%L%L%L%6&7&8&9&A%L%L%0&a&b&L%L%L%L%L%L%/%.&^&L%L%L%L%z%[&(&c&%&L%                    ",
"            L%L%L%A%b&y%v%d&L%f%]&e&@&L%L%L%L%L%L%w%.&^&L%L%<&f%f&g&h&@&L%L%                    ",
"              L%L%L%L%L%b&=&1&i&M%.&}&L%L%L%L%L%L%e%j&]&L%L%:&k&1&z%]&L%L%                      "};
